----------------------------------------------------------------------------
** PLEASE BE ADVICED: DO NOT DOWNLOAD THIS IF YOU CAN'T SPEAK/READ GREEK **
----------------------------------------------------------------------------

General
Complete name                            : Splinter.2008.Limited.720p.BluRay.x264.800MB-GRRiPS.mp4
Format                                   : MPEG-4
Format profile                           : Base Media
Codec ID                                 : isom
File size                                : 796 MiB
Duration                                 : 1h 22mn
Overall bit rate mode                    : Variable
Overall bit rate                         : 1 353 Kbps

Video
ID                                       : 1
Format                                   : AVC
Format/Info                              : Advanced Video Codec
Format profile                           : High@L4.0
Format settings, CABAC                   : Yes
Format settings, ReFrames                : 3 frames
Codec ID                                 : avc1
Codec ID/Info                            : Advanced Video Coding
Duration                                 : 1h 22mn
Bit rate mode                            : Variable
Bit rate                                 : 1 031 Kbps
Maximum bit rate                         : 25.0 Mbps
Width                                    : 1 280 pixels
Height                                   : 544 pixels
Display aspect ratio                     : 2.35:1
Frame rate mode                          : Constant
Frame rate                               : 23.976 fps
Color space                              : YUV
Chroma subsampling                       : 4:2:0
Bit depth                                : 8 bits
Scan type                                : Progressive
Bits/(Pixel*Frame)                       : 0.062
Stream size                              : 606 MiB (76%)
Writing library                          : x264 core 129 r2245 bc13772

Audio
ID                                       : 2
Format                                   : AAC
Format/Info                              : Advanced Audio Codec
Format profile                           : LC
Codec ID                                 : 40
Duration                                 : 1h 22mn
Bit rate mode                            : Variable
Bit rate                                 : 320 Kbps
Maximum bit rate                         : 339 Kbps
Channel(s)                               : 6 channels
Channel positions                        : Front: L C R, Side: L R, LFE
Sampling rate                            : 48.0 KHz
Compression mode                         : Lossy
Stream size                              : 188 MiB (24%)

Text
ID                                       : 3
Format                                   : Timed text
Codec ID                                 : tx3g
Duration                                 : 1h 19mn
Bit rate mode                            : Variable
Bit rate                                 : 54 bps
Stream size                              : 31.6 KiB (0%)
Language                                 : Greek

DIKO MOU RIP.

APO EDW MPOREITE NA TO  KATEBASETE APO HOSTER, AN DEN 8ELETE NA PERIMENE TORRENT 'H EXEI XAMILI TAXITHTA! :D
(APO TA LINK, DIAGRAPSTE TA KENA ALLIWS DEN ANNOIGEI H SELIDA)

EPILOGH 1: ad f. ly/Q6ufd
EPILOGH 2: ad f. ly/Q6ukV

FULL SCREENSHOTS: 
http://bayimg.com/aaNlhAAEB

KALH PROBOLH KAI S E E D ! ! ! !

--------------------------------------------------
|PERISSOTERA: https://thepiratebay.sx/user/GRRiPS|
--------------------------------------------------